<svg width="186" height="42" viewBox="0 0 186 42" fill="none" xmlns="http://www.w3.org/2000/svg">
<path d="M67.12 15H64.848L64.096 12.472H61.008L60.272 15H57.936L61.328 4.312H63.776L67.12 15ZM63.6 10.728L62.544 6.52L61.504 10.728H63.6ZM67.5596 11.096C67.5596 8.13067 68.717 6.648 71.0316 6.648C71.6183 6.648 72.093 6.744 72.4556 6.936V3.64H74.7116V15.112H72.8556L72.7276 14.504C72.1303 14.9307 71.421 15.144 70.5996 15.144C69.597 15.144 68.8396 14.7813 68.3276 14.056C67.8156 13.3307 67.5596 12.344 67.5596 11.096ZM71.2556 8.408C70.221 8.408 69.7036 9.288 69.7036 11.048C69.7036 12.6587 70.1836 13.464 71.1436 13.464C71.6343 13.464 72.077 13.3413 72.4716 13.096V8.632C72.1196 8.48267 71.7143 8.408 71.2556 8.408ZM79.6425 13.208L81.3545 6.792H83.6105L81.0505 15H78.2345L75.7225 6.792H77.9785L79.6425 13.208ZM91.8185 14.728C91.2745 15.0267 90.6772 15.176 90.0265 15.176C89.3865 15.176 88.9118 14.9307 88.6025 14.44C87.9838 14.952 87.2585 15.208 86.4265 15.208C85.5945 15.208 84.9652 15 84.5385 14.584C84.1118 14.1573 83.8985 13.5813 83.8985 12.856C83.8985 12.376 83.9998 11.9653 84.2025 11.624C84.4052 11.2827 84.6665 11.032 84.9865 10.872C85.5732 10.5947 86.1812 10.456 86.8105 10.456C87.4505 10.456 87.9625 10.472 88.3465 10.504V9.72C88.3465 9.16533 88.2345 8.808 88.0105 8.648C87.7865 8.488 87.4025 8.408 86.8585 8.408C86.3252 8.408 85.7225 8.52 85.0505 8.744L84.5865 7.336C84.9812 7.10133 85.4612 6.92533 86.0265 6.808C86.6025 6.68 87.0932 6.616 87.4985 6.616C88.5865 6.616 89.3598 6.85067 89.8185 7.32C90.2878 7.77867 90.5225 8.568 90.5225 9.688V13.048C90.5225 13.3467 90.6558 13.496 90.9225 13.496C91.0612 13.496 91.2585 13.464 91.5145 13.4L91.8185 14.728ZM87.0345 13.72C87.4825 13.72 87.9198 13.5813 88.3465 13.304V11.624C88.0478 11.6027 87.7865 11.592 87.5625 11.592C86.5065 11.592 85.9785 11.9333 85.9785 12.616C85.9785 13.352 86.3305 13.72 87.0345 13.72ZM97.2548 6.648C98.1828 6.648 98.8121 6.888 99.1428 7.368C99.4841 7.83733 99.6548 8.50933 99.6548 9.384V15H97.4148V9.784C97.4148 9.368 97.3454 9.048 97.2068 8.824C97.0788 8.58933 96.7588 8.472 96.2468 8.472C95.7348 8.472 95.2708 8.66933 94.8548 9.064V15H92.5668V6.792H94.4548L94.6468 7.704C94.9561 7.416 95.3454 7.17067 95.8148 6.968C96.2948 6.75467 96.7748 6.648 97.2548 6.648ZM104.789 15.208C103.69 15.208 102.778 14.856 102.053 14.152C101.328 13.4373 100.965 12.3653 100.965 10.936C100.965 9.496 101.322 8.424 102.037 7.72C102.752 7.00533 103.669 6.648 104.789 6.648C105.45 6.648 106.202 6.77067 107.045 7.016L106.613 8.632C105.962 8.48267 105.44 8.408 105.045 8.408C104.416 8.408 103.93 8.6 103.589 8.984C103.258 9.35733 103.093 10.024 103.093 10.984C103.093 11.944 103.274 12.6107 103.637 12.984C104.01 13.3573 104.528 13.544 105.189 13.544C105.53 13.544 106.053 13.4907 106.757 13.384L107.029 14.84C106.186 15.0853 105.44 15.208 104.789 15.208ZM109.858 11.128C109.88 12.728 110.584 13.528 111.97 13.528C112.621 13.528 113.266 13.4053 113.906 13.16L114.29 14.68C113.469 15.032 112.557 15.208 111.554 15.208C109.026 15.208 107.762 13.72 107.762 10.744C107.762 9.57067 108.077 8.59467 108.706 7.816C109.336 7.03733 110.242 6.648 111.426 6.648C112.376 6.648 113.106 6.904 113.618 7.416C114.141 7.91733 114.402 8.62133 114.402 9.528C114.402 10.0613 114.333 10.5947 114.194 11.128H109.858ZM112.61 9.912V9.816C112.61 8.76 112.237 8.232 111.49 8.232C110.594 8.232 110.056 8.792 109.874 9.912H112.61ZM121.619 11.096H121.219V15H118.915V4.312H122.003C122.813 4.312 123.459 4.38133 123.939 4.52C124.429 4.65867 124.861 4.89867 125.235 5.24C125.885 5.816 126.211 6.60533 126.211 7.608C126.211 8.83467 125.848 9.72 125.123 10.264C124.877 10.456 124.589 10.616 124.259 10.744L126.995 14.472L125.267 15.528L122.099 11.08C122.003 11.0907 121.843 11.096 121.619 11.096ZM123.427 9.064C123.8 8.808 123.987 8.38133 123.987 7.784C123.987 7.176 123.832 6.728 123.523 6.44C123.224 6.152 122.595 6.008 121.635 6.008H121.219V9.4H121.395C122.451 9.4 123.128 9.288 123.427 9.064ZM129.593 11.128C129.614 12.728 130.318 13.528 131.705 13.528C132.355 13.528 133.001 13.4053 133.641 13.16L134.025 14.68C133.203 15.032 132.291 15.208 131.289 15.208C128.761 15.208 127.497 13.72 127.497 10.744C127.497 9.57067 127.811 8.59467 128.441 7.816C129.07 7.03733 129.977 6.648 131.161 6.648C132.11 6.648 132.841 6.904 133.353 7.416C133.875 7.91733 134.137 8.62133 134.137 9.528C134.137 10.0613 134.067 10.5947 133.929 11.128H129.593ZM132.345 9.912V9.816C132.345 8.76 131.971 8.232 131.225 8.232C130.329 8.232 129.79 8.792 129.609 9.912H132.345ZM138.448 8.376C137.723 8.376 137.36 8.616 137.36 9.096C137.36 9.352 137.483 9.57067 137.728 9.752C137.974 9.93333 138.267 10.0933 138.608 10.232C138.96 10.36 139.307 10.5093 139.648 10.68C140 10.84 140.299 11.0747 140.544 11.384C140.79 11.6933 140.912 12.072 140.912 12.52C140.912 13.32 140.64 13.9707 140.096 14.472C139.552 14.9627 138.752 15.208 137.696 15.208C137.216 15.208 136.71 15.1547 136.176 15.048C135.654 14.9413 135.27 14.8187 135.024 14.68L135.568 13.08C136.4 13.3573 137.147 13.496 137.808 13.496C138.48 13.496 138.816 13.2347 138.816 12.712C138.816 12.488 138.694 12.2853 138.448 12.104C138.203 11.9227 137.904 11.7573 137.552 11.608C137.211 11.448 136.864 11.2773 136.512 11.096C136.171 10.9147 135.878 10.6587 135.632 10.328C135.387 9.99733 135.264 9.61333 135.264 9.176C135.264 8.35467 135.536 7.72533 136.08 7.288C136.624 6.85067 137.403 6.632 138.416 6.632C139.43 6.632 140.224 6.79733 140.8 7.128L140.272 8.712C139.536 8.488 138.928 8.376 138.448 8.376ZM149.007 10.92C149.007 12.4027 148.677 13.4907 148.015 14.184C147.354 14.8667 146.485 15.208 145.407 15.208C144.33 15.208 143.471 14.8667 142.831 14.184C142.202 13.5013 141.887 12.4187 141.887 10.936C141.887 9.45333 142.213 8.37067 142.863 7.688C143.525 6.99467 144.389 6.648 145.455 6.648C147.823 6.648 149.007 8.072 149.007 10.92ZM146.831 10.904C146.831 9.92267 146.714 9.256 146.479 8.904C146.245 8.552 145.898 8.376 145.439 8.376C144.991 8.376 144.645 8.552 144.399 8.904C144.165 9.256 144.047 9.93333 144.047 10.936C144.047 12.6427 144.511 13.496 145.439 13.496C145.877 13.496 146.218 13.3093 146.463 12.936C146.709 12.552 146.831 11.8747 146.831 10.904ZM155.339 14.248C154.518 14.888 153.643 15.208 152.715 15.208C151.798 15.208 151.169 14.9733 150.827 14.504C150.497 14.024 150.331 13.3467 150.331 12.472V6.792H152.571V12.072C152.571 12.4987 152.635 12.824 152.763 13.048C152.891 13.272 153.206 13.384 153.707 13.384C154.219 13.384 154.694 13.2187 155.131 12.888V6.792H157.371V15.208H155.531L155.339 14.248ZM163.147 8.44C162.272 8.44 161.659 8.69067 161.307 9.192V15H159.067V6.792H160.923L161.099 7.832C161.717 7.02133 162.507 6.616 163.467 6.616C163.733 6.616 163.979 6.64267 164.203 6.696L163.835 8.536C163.6 8.472 163.371 8.44 163.147 8.44ZM168.336 15.208C167.237 15.208 166.325 14.856 165.6 14.152C164.875 13.4373 164.512 12.3653 164.512 10.936C164.512 9.496 164.869 8.424 165.584 7.72C166.299 7.00533 167.216 6.648 168.336 6.648C168.997 6.648 169.749 6.77067 170.592 7.016L170.16 8.632C169.509 8.48267 168.987 8.408 168.592 8.408C167.963 8.408 167.477 8.6 167.136 8.984C166.805 9.35733 166.64 10.024 166.64 10.984C166.64 11.944 166.821 12.6107 167.184 12.984C167.557 13.3573 168.075 13.544 168.736 13.544C169.077 13.544 169.6 13.4907 170.304 13.384L170.576 14.84C169.733 15.0853 168.987 15.208 168.336 15.208ZM173.405 11.128C173.427 12.728 174.131 13.528 175.517 13.528C176.168 13.528 176.813 13.4053 177.453 13.16L177.837 14.68C177.016 15.032 176.104 15.208 175.101 15.208C172.573 15.208 171.309 13.72 171.309 10.744C171.309 9.57067 171.624 8.59467 172.253 7.816C172.883 7.03733 173.789 6.648 174.973 6.648C175.923 6.648 176.653 6.904 177.165 7.416C177.688 7.91733 177.949 8.62133 177.949 9.528C177.949 10.0613 177.88 10.5947 177.741 11.128H173.405ZM176.157 9.912V9.816C176.157 8.76 175.784 8.232 175.037 8.232C174.141 8.232 173.603 8.792 173.421 9.912H176.157ZM182.261 8.376C181.535 8.376 181.173 8.616 181.173 9.096C181.173 9.352 181.295 9.57067 181.541 9.752C181.786 9.93333 182.079 10.0933 182.421 10.232C182.773 10.36 183.119 10.5093 183.461 10.68C183.813 10.84 184.111 11.0747 184.357 11.384C184.602 11.6933 184.725 12.072 184.725 12.52C184.725 13.32 184.453 13.9707 183.909 14.472C183.365 14.9627 182.565 15.208 181.509 15.208C181.029 15.208 180.522 15.1547 179.989 15.048C179.466 14.9413 179.082 14.8187 178.837 14.68L179.381 13.08C180.213 13.3573 180.959 13.496 181.621 13.496C182.293 13.496 182.629 13.2347 182.629 12.712C182.629 12.488 182.506 12.2853 182.261 12.104C182.015 11.9227 181.717 11.7573 181.365 11.608C181.023 11.448 180.677 11.2773 180.325 11.096C179.983 10.9147 179.69 10.6587 179.445 10.328C179.199 9.99733 179.077 9.61333 179.077 9.176C179.077 8.35467 179.349 7.72533 179.893 7.288C180.437 6.85067 181.215 6.632 182.229 6.632C183.242 6.632 184.037 6.79733 184.613 7.128L184.085 8.712C183.349 8.488 182.741 8.376 182.261 8.376ZM61.344 33.144H65.424V35H59.024V24.312H61.344V33.144ZM68.9221 33.144H73.0021V35H66.6021V24.312H68.9221V33.144ZM80.6186 34.92C79.776 35.112 78.992 35.208 78.2666 35.208C77.552 35.208 76.928 35.1173 76.3946 34.936C75.872 34.744 75.3866 34.44 74.9386 34.024C73.9893 33.1387 73.5146 31.672 73.5146 29.624C73.5146 28.6107 73.6533 27.736 73.9306 27C74.208 26.2533 74.5866 25.6773 75.0666 25.272C75.9626 24.5147 77.0453 24.136 78.3146 24.136C79.1146 24.136 79.92 24.2533 80.7306 24.488L80.3626 26.136C79.7546 26.0187 79.1893 25.96 78.6666 25.96C77.8026 25.96 77.12 26.232 76.6186 26.776C76.1173 27.3093 75.8666 28.2533 75.8666 29.608C75.8666 30.952 76.1226 31.9067 76.6346 32.472C77.1466 33.0267 77.856 33.304 78.7626 33.304C79.392 33.304 79.9626 33.2613 80.4746 33.176L80.6186 34.92Z" fill="white"/>
<rect width="42" height="42" rx="9" fill="#3A6AFD"/>
<path d="M20.2309 9L14.3433 21.3842C14.0854 21.9266 14.3631 22.6 14.8015 23.0105C15.9831 24.117 16.9661 26.2936 17.3741 27.4592L20.4506 21.5259L24.5766 29.1264C24.6094 29.1868 24.6358 29.2515 24.6571 29.3168C25.5635 32.101 28.8628 32.9053 31.2738 32.9919C31.9829 33.0173 32.3975 32.266 32.0687 31.6373L20.2309 9Z" fill="white"/>
<circle cx="12.5395" cy="29.6567" r="3.29628" fill="white"/>
</svg>
